<?xml version="1.0" encoding="utf-8"?>
<!-- Generator: Adobe Illustrator 15.0.0, SVG Export Plug-In . SVG Version: 6.00 Build 0)  -->
<!DOCTYPE svg PUBLIC "-//W3C//DTD SVG 1.1//EN" "http://www.w3.org/Graphics/SVG/1.1/DTD/svg11.dtd">
<svg version="1.1" id="Capa_1" xmlns="http://www.w3.org/2000/svg" xmlns:xlink="http://www.w3.org/1999/xlink" x="0px" y="0px"
	 width="676.445px" height="115.859px" viewBox="0 0 676.445 115.859" enable-background="new 0 0 676.445 115.859"
	 xml:space="preserve">
<g>
	<path fill="#8A8C8C" d="M126.126,30.721c-12.629,2.575-24.342,10.918-29.477,22.942c-6.767,15.998-3.787,36.657,9.217,48.696
		c11.027,9.744,26.97,11.806,41.027,9.231c4.893-1.171,10.178-2.41,13.978-5.902c3.559-3.373-0.631-10.273-5.217-8.382
		c-12.238,6.251-28.708,6.819-39.68-2.332c-13.314-12.147-13.208-36.515,1.174-47.823c9.556-7.818,23.829-8.424,34.626-2.841
		c2.345,1.049,5.31,2.494,7.72,0.795c3.424-2.118,2.819-7.453-0.525-9.356C149.308,29.712,137.164,28.483,126.126,30.721"/>
	<path fill="#8A8C8C" d="M201.339,30.721c-12.291,2.522-23.718,10.45-29.046,21.998c-7.342,16.131-4.46,37.362,8.79,49.64
		c11.026,9.756,26.969,11.806,41.026,9.231c4.894-1.171,10.177-2.41,13.978-5.902c3.559-3.373-0.647-10.273-5.216-8.382
		c-12.239,6.251-28.693,6.819-39.68-2.318c-13.315-12.161-13.222-36.528,1.173-47.822c9.556-7.833,23.832-8.452,34.625-2.856
		c2.347,1.065,5.31,2.494,7.722,0.795c3.425-2.118,2.817-7.453-0.524-9.356C224.522,29.712,212.38,28.483,201.339,30.721"/>
	<path fill="#8A8C8C" d="M357.783,30.911c-4.109,1.174-8.195,2.926-11.242,5.999c-7.209,6.765-7.506,19.219-1.389,26.764
		c9.182,10.506,24.841,10.042,35.488,18.358c6.255,4.692,4.597,15.893-2.775,18.572c-9.786,3.603-20.717,1-29.368-4.298
		c-2.952-2.198-8.263-1.092-9.03,2.792c-0.823,3.636,2.088,6.738,5.08,8.288c8.384,4.475,18.155,5.552,27.535,5.122
		c7.643-0.486,15.662-3.116,20.798-9.057c6.899-7.883,6.859-21.352-1.039-28.562c-9.407-8.72-23.115-9.369-33.573-16.252
		c-5.27-3.32-5.298-12.121-0.092-15.502c4.822-3.222,11.049-2.993,16.603-2.643c5.929,0.339,11.294,3.991,17.295,3.492
		c5.039-0.981,4.486-8.354,0.188-10.041C381.718,28.768,369.104,28.434,357.783,30.911"/>
	<path fill="#8A8C8C" d="M417.522,30.076c-2.546,1.171-4.057,3.854-3.786,6.633c-0.015,13.948-0.042,27.898,0.024,41.861
		c0.018,7.211,1.645,14.558,5.568,20.688c4.73,7.657,13.666,11.403,22.251,12.737c10.81,1.363,22.591,0.811,32.104-5.052
		c9.396-5.946,13.668-17.55,13.467-28.304c-0.083-14.76,0.229-29.546-0.148-44.291c-1.347-6.278-11.646-6.12-12.778,0.215
		c-0.378,14.666,0.081,29.356-0.201,44.035c-0.055,4.58-0.821,9.272-3.248,13.234c-3.005,5.366-9.085,8.167-14.961,8.975
		c-7.049,0.919-14.705,0.233-20.783-3.745c-6.01-4.043-8.248-11.656-8.344-18.569c-0.271-14.343,0.096-28.686-0.162-43.011
		C426.647,31.087,421.31,28.514,417.522,30.076"/>
	<path fill="#8A8C8C" d="M507.972,31.318c-2.128,1.55-2.009,4.415-2.102,6.763c0.015,22.038,0.015,44.088,0,66.126
		c0.093,2.344,0.015,5.186,2.102,6.75c3.506,3.655,10.904,1.013,10.85-4.164c0.324-12.588-0.107-25.189,0.189-37.777
		c0.444-7.456,1.887-15.34,6.645-21.324c4.961-6.267,14.436-7.897,21.471-4.369c3.262,1.363,6.576,4.259,10.337,2.847
		c4.639-1.687,4.53-8.586,0.728-11.145c-11.806-9.223-32.28-6.717-39.354,7.328c-0.015-3.031,0.378-6.132-0.392-9.099
		C516.53,29.591,511.004,28.352,507.972,31.318"/>
	<path fill="#8A8C8C" d="M17.073,65.279c0.674-8.542,4.637-17.37,12.372-21.712c9.233-5.068,21.821-4.824,30.042,2.171
		c5.797,4.757,8.425,12.278,8.856,19.582C51.254,65.335,34.165,65.389,17.073,65.279 M65.31,35.858
		c-16.859-10.834-42.683-7.562-54.277,9.515c-12.088,17.711-9.501,45.109,7.792,58.588c10.282,8.223,24.368,10.015,37.024,7.739
		c7.13-1.323,14.501-3.479,20.094-8.291c3.746-3.003,0.136-9.999-4.487-8.583c-4.206,1.468-7.845,4.244-12.185,5.419
		c-10.324,2.909-22.467,2.775-31.268-4.071c-6.808-4.987-9.976-13.347-10.986-21.461c18.965-0.133,37.927,0.067,56.878-0.09
		c3.355,0.283,6.118-2.52,6.656-5.677C81.891,56.265,75.972,42.975,65.31,35.858"/>
	<path fill="#8A8C8C" d="M550.089,101.378c1.002,0,1.699-0.392,1.699-1.419c0-0.895-0.444-1.422-1.613-1.422h-1.085v2.841H550.089z
		 M546.481,96.735h3.936c2.619,0,4.015,1.164,4.015,3.174c0,1.739-1.052,2.586-2.298,2.906c0.266,0.208,0.715,0.687,1.27,1.637
		l1.744,2.987h-2.936l-1.818-3.251c-0.477-0.792-0.688-0.981-1.215-0.981v4.232h-2.697V96.735z M558.165,102.27
		c0-4.848-3.315-8.018-7.851-8.018c-4.54,0-7.853,3.17-7.853,8.018c0,4.871,3.313,8.018,7.853,8.018
		C554.85,110.287,558.165,107.141,558.165,102.27 M539.957,102.27c0-5.738,4.648-10.388,10.357-10.388
		c5.734,0,10.379,4.649,10.379,10.388c0,5.732-4.645,10.384-10.379,10.384C544.605,112.653,539.957,108.002,539.957,102.27"/>
	<path fill="#8A8C8C" d="M303.144,96.44c-11.416,8.666-29.247,7.133-38.882-3.53c-8.385-9.107-10.232-23.115-5.689-34.45
		c3.409-8.69,11.228-15.598,20.447-17.441c8.545-1.91,18.032-0.122,24.906,5.446C319.129,58.409,318.833,85.013,303.144,96.44
		 M317.122,42.692c-10.445-11.31-27.281-15.259-42.052-11.806c-7.735,1.776-15.055,5.686-20.569,11.455
		c-15.065,15.487-14.77,43.131,0.73,58.226c16.268,16.43,46.188,16.094,61.834-1.053C331.543,84.296,331.555,57.948,317.122,42.692"
		/>
	<path fill="#77BC1F" d="M635.326,57.023l-7.256,7.256l0.002,0.003L611.563,80.79h-0.005h-0.002l-16.509-16.508l0.002-0.003
		l-7.254-7.256c-4.561-4.559-4.56-11.949,0-16.507c4.559-4.562,11.947-4.562,16.508,0l7.255,7.254l7.259-7.254
		c4.56-4.562,11.949-4.562,16.507,0C639.885,45.074,639.885,52.464,635.326,57.023 M667.888,8.069
		c-3.669-3.67-8.542-5.688-13.731-5.688c-5.188,0-10.058,2.018-13.734,5.691l-28.893,28.904l-1.879-1.894
		c-3.67-3.67-8.545-5.689-13.729-5.689c-5.187,0-10.066,2.019-13.733,5.689c-3.664,3.669-5.687,8.542-5.687,13.728
		c0,5.189,2.022,10.064,5.694,13.744L611.6,91.808l56.288-56.276C675.46,27.958,675.46,15.636,667.888,8.069"/>
</g>
</svg>
